<svg width="68" height="61" viewBox="0 0 68 61" fill="none" xmlns="http://www.w3.org/2000/svg">
<path d="M6.375 50.6875C6.375 52.5469 7.70312 53.875 9.5625 53.875H64.8125C66.5391 53.875 68 55.3359 68 57.0625C68 58.9219 66.5391 60.25 64.8125 60.25H9.5625C4.25 60.25 0 56 0 50.6875V3.9375C0 2.21094 1.32812 0.75 3.1875 0.75C4.91406 0.75 6.375 2.21094 6.375 3.9375V50.6875ZM44.625 37.0078C43.4297 38.3359 41.4375 38.3359 40.2422 37.0078L29.6172 26.5156L19.125 37.0078C17.9297 38.3359 15.9375 38.3359 14.7422 37.0078C13.4141 35.8125 13.4141 33.8203 14.7422 32.4922L27.4922 19.7422C28.0234 19.2109 28.8203 18.8125 29.6172 18.8125C30.5469 18.8125 31.3438 19.2109 31.875 19.7422L42.5 30.3672L58.3047 14.4297C59.5 13.2344 61.4922 13.2344 62.6875 14.4297C64.0156 15.7578 64.0156 17.75 62.6875 18.9453L44.625 37.0078Z" fill="#00DD7D"/>
</svg>
