<svg width="60" height="69" viewBox="0 0 60 69" fill="none" xmlns="http://www.w3.org/2000/svg">
<path d="M23.375 60C22.1797 60 21.25 61.0625 21.25 62.125V68.5H25.5V62.125C25.5 61.0625 24.4375 60 23.375 60ZM36.125 60C34.9297 60 34 61.0625 34 62.125C34 63.3203 34.9297 64.25 36.125 64.25C37.1875 64.25 38.25 63.3203 38.25 62.125C38.25 61.0625 37.1875 60 36.125 60ZM21.7812 23.3438L22.8438 26.6641C22.9766 27.1953 23.6406 27.1953 23.7734 26.6641L24.9688 23.3438L28.1562 22.2812C28.6875 22.1484 28.6875 21.4844 28.1562 21.3516L24.9688 20.1562L23.7734 16.9688C23.6406 16.4375 22.9766 16.4375 22.8438 16.9688L21.7812 20.1562L18.4609 21.3516C17.9297 21.4844 17.9297 22.1484 18.4609 22.2812L21.7812 23.3438ZM44.625 42.4688C40.375 45.5234 35.1953 47.25 29.75 47.25C24.1719 47.25 18.9922 45.5234 14.7422 42.4688C6.10938 45.7891 0 54.1562 0 63.9844C0 66.5078 1.99219 68.5 4.51562 68.5H17V60C17 57.7422 18.8594 55.75 21.25 55.75H38.25C40.5078 55.75 42.5 57.7422 42.5 60V68.5H54.8516C57.375 68.5 59.5 66.5078 59.5 63.9844C59.5 54.1562 53.2578 45.7891 44.625 42.4688ZM8.5 30.25H10.2266C13.5469 37.8203 20.9844 43 29.75 43C38.3828 43 45.8203 37.8203 49.1406 30.25H51C52.0625 30.25 53.125 29.3203 53.125 28.125V15.375C53.125 14.3125 52.0625 13.25 51 13.25H49.1406C45.8203 5.8125 38.3828 0.5 29.75 0.5C20.9844 0.5 13.5469 5.8125 10.2266 13.25H8.5C7.30469 13.25 6.375 14.3125 6.375 15.375V28.125C6.375 29.3203 7.30469 30.25 8.5 30.25ZM13.8125 18.5625C13.8125 15.6406 16.6016 13.25 20.1875 13.25H39.3125C42.7656 13.25 45.6875 15.6406 45.6875 18.5625V21.75C45.6875 28.7891 39.9766 34.5 32.9375 34.5H26.5625C19.5234 34.5 13.8125 28.7891 13.8125 21.75V18.5625Z" fill="#00DD7D"/>
</svg>
