<svg width="72" height="72" viewBox="0 0 72 72" fill="none" xmlns="http://www.w3.org/2000/svg">
<path d="M70.7344 6.21094C69.5391 10.0625 66.8828 18.8281 63.8281 26.5312C65.1562 27.0625 66.2188 28.2578 66.75 29.5859C67.2812 30.9141 67.1484 32.5078 66.4844 33.7031C63.5625 39.2812 55.9922 53.2266 48.4219 60.7969C37.9297 71.1562 21.0625 71.1562 10.7031 60.7969C0.34375 50.4375 0.34375 33.4375 10.7031 23.0781C18.2734 15.5078 32.0859 7.9375 37.7969 5.01562C38.9922 4.35156 40.5859 4.21875 41.9141 4.88281C43.2422 5.54688 44.3047 6.34375 44.8359 7.80469C52.6719 4.75 61.4375 1.96094 65.2891 0.898438C66.75 0.367188 68.4766 0.765625 69.6719 1.96094C70.8672 3.02344 71.2656 4.75 70.7344 6.21094ZM55.1953 30.6484L56.6562 27.3281C59.3125 20.9531 61.9688 13.1172 63.5625 7.9375C58.3828 9.53125 50.4141 12.1875 44.1719 14.8438L40.8516 16.3047C40.8516 16.3047 39.5234 11.7891 39.3906 11.3906C34.0781 14.1797 21.7266 21.0859 15.2188 27.5938C7.38281 35.5625 7.38281 48.3125 15.2188 56.2812C19.0703 60 24.25 62.125 29.5625 62.125C34.875 62.125 40.0547 60 43.9062 56.2812C50.2812 49.7734 56.9219 38.0859 60.1094 32.1094C59.7109 31.9766 59.1797 31.8438 58.6484 31.7109L55.1953 30.6484ZM44.3047 41.9375C44.3047 50.0391 37.5312 56.8125 29.4297 56.8125C21.1953 56.8125 14.5547 50.0391 14.5547 41.9375C14.5547 33.7031 21.1953 27.0625 29.4297 27.0625C37.6641 27.0625 44.3047 33.8359 44.3047 41.9375ZM29.4297 38.75C29.4297 36.8906 27.9688 35.5625 26.2422 35.5625C24.3828 35.5625 23.0547 36.8906 23.0547 38.75C23.0547 40.4766 24.3828 41.9375 26.2422 41.9375C27.0391 41.9375 27.8359 41.5391 28.5 41.0078C29.1641 40.4766 29.4297 39.6797 29.4297 38.75ZM33.6797 48.3125C33.6797 47.1172 32.6172 46.1875 31.5547 46.1875C30.3594 46.1875 29.4297 47.1172 29.4297 48.3125C29.4297 49.375 30.3594 50.4375 31.5547 50.4375C32.75 50.4375 33.6797 49.5078 33.6797 48.3125Z" fill="#00DD7D"/>
</svg>
