<svg width="71" height="70" viewBox="0 0 71 70" fill="none" xmlns="http://www.w3.org/2000/svg">
<path d="M55.1875 20.625C55.1875 23.6797 52.7969 25.9375 49.875 25.9375C46.8203 25.9375 44.5625 23.6797 44.5625 20.625C44.5625 17.7031 46.8203 15.3125 49.875 15.3125C52.7969 15.3125 55.1875 17.7031 55.1875 20.625ZM4.05469 39.75C2.99219 39.75 1.92969 39.2188 1.39844 38.1562C0.734375 37.2266 0.734375 36.0312 1.39844 34.9688L8.30469 23.2812C10.0312 20.3594 13.2188 18.5 16.5391 18.5H27.4297C27.8281 17.9688 28.0938 17.5703 28.4922 17.0391C39.3828 0.96875 55.5859 0.4375 65.1484 2.29688C66.7422 2.5625 67.9375 3.75781 68.2031 5.35156C70.0625 14.9141 69.5312 31.1172 53.4609 42.0078C52.9297 42.4062 52.3984 42.6719 52 43.0703V53.9609C52 57.2812 50.1406 60.4688 47.2188 62.1953L35.5312 69.1016C34.4688 69.6328 33.2734 69.7656 32.3438 69.1016C31.2812 68.5703 30.6172 67.5078 30.6172 66.3125V53.5625C29.5547 54.0938 28.4922 54.4922 27.5625 54.8906C26.1016 55.5547 24.2422 55.1562 23.0469 53.9609L16.2734 47.3203C15.0781 45.9922 14.6797 44.2656 15.4766 42.6719C15.7422 41.875 16.1406 40.8125 16.6719 39.75H4.05469ZM62.2266 8.27344C53.8594 7.07812 42.0391 8.40625 33.6719 20.625C29.6875 26.6016 24.6406 37.625 21.8516 43.8672L26.5 48.5156C32.7422 45.8594 43.8984 40.8125 49.875 36.6953C62.0938 28.4609 63.4219 16.6406 62.2266 8.27344Z" fill="#00DD7D"/>
</svg>
