<svg width="64" height="69" viewBox="0 0 64 69" fill="none" xmlns="http://www.w3.org/2000/svg">
<path d="M59.8906 11.6562L34.3906 1.03125C33.5938 0.765625 32.7969 0.632812 32 0.632812C31.0703 0.632812 30.2734 0.765625 29.4766 1.03125L3.97656 11.6562C1.58594 12.7188 0.125 14.9766 0.125 17.5C0.125 51.7656 25.2266 68.5 31.8672 68.5C38.5078 68.5 63.875 52.0312 63.875 17.5C63.875 14.9766 62.2812 12.7188 59.8906 11.6562ZM32 62.125C18.9844 56.8125 6.5 40.0781 6.5 17.5L32 6.875L57.5 17.5C57.5 40.6094 44.3516 56.9453 32 62.125ZM24.5625 33.3047C24.0312 32.7734 23.2344 32.375 22.4375 32.375C20.5781 32.375 19.25 33.8359 19.25 35.5625C19.25 36.4922 19.5156 37.2891 20.1797 37.8203L26.5547 44.1953C27.0859 44.8594 27.8828 45.125 28.8125 45.125C29.0781 45.125 30.2734 44.9922 31.2031 43.9297L43.9531 29.0547C44.4844 28.5234 44.75 27.7266 44.75 27.0625C44.75 26 43.9531 23.875 41.5625 23.875C40.6328 23.875 39.7031 24.1406 39.0391 24.9375L28.5469 37.2891L24.5625 33.3047Z" fill="#00DD7D"/>
</svg>
