<svg width="68" height="69" viewBox="0 0 68 69" fill="none" xmlns="http://www.w3.org/2000/svg">
<path d="M68 34.5C68 53.3594 52.7266 68.5 34 68.5C15.1406 68.5 0 53.3594 0 34.5C0 15.7734 15.1406 0.5 34 0.5C52.7266 0.5 68 15.7734 68 34.5ZM12.2188 17.3672C8.5 22.1484 6.375 28.125 6.375 34.5C6.375 49.7734 18.7266 62.125 34 62.125C40.375 62.125 46.3516 60 51.1328 56.2812L12.2188 17.3672ZM61.625 34.5C61.625 19.3594 49.1406 6.875 34 6.875C27.4922 6.875 21.5156 9.13281 16.7344 12.8516L55.6484 51.7656C59.3672 46.9844 61.625 41.0078 61.625 34.5Z" fill="#00DD7D"/>
</svg>
